# AST/ASF file generated using VICON BodyLanguage
# -----------------------------------------------
:version 1.10
:name VICON
:units
  mass 1.0
  length 0.45
  angle deg
:documentation
   .ast/.asf automatically generated from VICON data using
   VICON BodyBuilder and BodyLanguage model FoxedUp or BRILLIANT.MOD
:root
   order TX TY TZ RX RY RZ
   axis XYZ
   position 0 0 0  
   orientation 0 0 0 
:bonedata
  begin
     id 1 
     name lhipjoint
     direction 0.575328 -0.747301 0.332475 
     length 2.40933 
     axis 0 0 0  XYZ
  end
  begin
     id 2 
     name lfemur
     direction 0.34202 -0.939693 0  
     length 7.31453  
     axis 0 0 20  XYZ
    dof rx ry rz
    limits (-160.0 20.0)
           (-70.0 70.0)
           (-60.0 70.0)
  end
  begin
     id 3 
     name ltibia
     direction 0.34202 -0.939693 0   
     length 7.82185   
     axis 0 0 20   XYZ
    dof rx
    limits (-10.0 170.0)
  end
  begin
     id 4 
     name lfoot
     direction 0.0795993 -0.218697 0.972541   
     length 2.19173   
     axis -90 7.62852e-016 20   XYZ
    dof rx rz
    limits (-45.0 90.0)
           (-70.0 20.0)
  end
  begin
     id 5 
     name ltoes
     direction 1.53537e-011 -4.21894e-011 1   
     length 1.10023   
     axis -90 7.62852e-016 20   XYZ
    dof rx
    limits (-90.0 20.0)
  end
  begin
     id 6 
     name rhipjoint
     direction -0.513884 -0.783789 0.348708   
     length 2.29716  
     axis 0 0 0  XYZ 
  end
  begin
     id 7 
     name rfemur
     direction -0.34202 -0.939693 0   
     length 7.59573   
     axis 0 0 -20   XYZ
    dof rx ry rz
    limits (-160.0 20.0)
           (-70.0 70.0)
           (-70.0 60.0)
  end
  begin
     id 8 
     name rtibia
     direction -0.34202 -0.939693 0   
     length 7.66402   
     axis 0 0 -20   XYZ
    dof rx
    limits (-10.0 170.0)
 end
 begin
     id 9 
     name rfoot
     direction -0.137793 -0.378584 0.915253   
     length 2.27056  
     axis -90 -7.62852e-016 -20   XYZ
    dof rx rz
    limits (-45.0 90.0)
           (-20.0 70.0)
  end
  begin
     id 10 
     name rtoes
     direction -1.53493e-011 -4.22159e-011 1   
     length 1.11766   
     axis -90 -7.62852e-016 -20   XYZ
    dof rx
    limits (-90.0 20.0)
  end
  begin
     id 11 
     name lowerback
     direction -0.00732775 0.998356 -0.05685   
     length 2.16513   
     axis 0 0 0   XYZ
    dof rx ry rz
    limits (-20.0 45.0)
           (-30.0 30.0)
           (-30.0 30.0)
  end
  begin
     id 12 
     name upperback
     direction 0.0218081 0.999627 -0.0164647   
     length 2.16755   
     axis 0 0 0   XYZ
    dof rx ry rz
    limits (-20.0 45.0)
           (-30.0 30.0)
           (-30.0 30.0)
  end
  begin
     id 13 
     name thorax
     direction 0.02365 0.999661 0.0108914   
     length 2.16932   
     axis 0 0 0   XYZ
    dof rx ry rz
    limits (-20.0 45.0)
           (-30.0 30.0)
           (-30.0 30.0)
  end
  begin
     id 14 
     name lowerneck
     direction -0.0523929 0.978385 0.200044   
     length 1.63877   
     axis 0 0 0   XYZ
    dof rx ry rz
    limits (-20.0 45.0)
           (-30.0 30.0)
           (-30.0 30.0)
  end
  begin
     id 15 
     name upperneck
     direction 0.0448674 0.981321 -0.187074   
     length 1.69014   
     axis 0 0 0   XYZ
    dof rx ry rz
    limits (-20.0 45.0)
           (-30.0 30.0)
           (-30.0 30.0)
  end
  begin
     id 16
     name head
     direction 0.0199089 0.996118 -0.0857429  
     length 1.70094  
     axis 0 0 0   XYZ
    dof rx ry rz
    limits (-20.0 45.0)
           (-30.0 30.0)
           (-30.0 30.0)
  end
  begin
     id 17 
     name lclavicle
     direction 0.940366 0.30191 -0.156722  
     length 3.37521  
     axis 0 0 0   XYZ
    dof ry rz
    limits (-20.0 10.0)
           (0.0 20.0)
  end
  begin
     id 18 
     name lhumerus
     direction 1 -4.4897e-011 -1.7911e-027   
     length 5.25287   
     axis 180 -30 -90   XYZ
    dof rx ry rz
    limits (-60.0 90.0)
           (-90.0 90.0)
           (-90.0 90.0)
  end
  begin
     id 19
     name lradius
     direction 1 -4.48951e-011 1.04424e-027   
     length 3.51014   
     axis 180 -30 -90   XYZ
    dof rx
    limits (-10.0 170.0)
  end
  begin
     id 20
     name lwrist
     direction 1 -4.48997e-011 -9.5942e-028   
     length 1.75507   
     axis 8.48502e-016 90 90   XYZ
    dof ry
    limits (-180.0 0.0)
 end
  begin
     id 21 
     name lhand
     direction 1 -4.48831e-011 -1.90777e-027   
     length 0.706179   
     axis 1.22306e-015 90 90   XYZ
    dof rx rz
    limits (-90.0 90.0)
           (-45.0 45.0)
  end
  begin
     id 22 
     name lfingers
     direction 1 -4.49108e-011 -3.85244e-027   
     length 0.569339   
     axis 2.44611e-015 90 90   XYZ
    dof rx
    limits (0.0 90.0)
  end
  begin
     id 23
     name lthumb
     direction 0.707107 -6.34953e-011 0.707107   
     length 0.817461   
     axis -90 45 -1.62303e-014   XYZ
    dof rx rz
    limits (-45.0 45.0)
           (-45.0 45.0)
  end
  begin
     id 24 
     name rclavicle
     direction -0.905329 0.382405 -0.184787   
     length 3.30787  
     axis 0 0 0   XYZ 
    dof ry rz
    limits (-10.0 20.0)
           (-20.0 0.0)
  end
  begin
     id 25 
     name rhumerus
     direction -1 -4.48953e-011 -9.15316e-029  
     length 5.28721   
     axis 180 30 90   XYZ
    dof rx ry rz
    limits (-90.0 60.0)
           (-90.0 90.0)
           (-90.0 90.0)
  end
  begin
     id 26 
     name rradius
     direction -1 -4.48987e-011 9.37824e-028   
     length 3.50544   
     axis 180 30 90   XYZ
    dof rx
    limits (-10.0 170.0)
  end
  begin
     id 27 
     name rwrist
     direction -1 -4.48967e-011 -9.58414e-028   
     length 1.75272   
     axis 8.48502e-016 -90 -90   XYZ
    dof ry
    limits (-180.0 0.0)
  end
  begin
     id 28
     name rhand
     direction -1 -4.48904e-011 -1.91266e-027   
     length 0.884996   
     axis 1.22306e-015 -90 -90   XYZ
    dof rx rz
    limits (-90.0 90.0)
           (-45.0 45.0)
  end
  begin
     id 29
     name rfingers
     direction -1 -4.4909e-011 -3.85015e-027   
     length 0.713507   
     axis 2.44611e-015 -90 -90   XYZ
    dof rx
    limits (0.0 90.0)
  end
  begin
     id 30
     name rthumb
     direction -0.707107 -6.34853e-011 0.707107   
     length 1.02446   
     axis -90 -45 1.62303e-014   XYZ
    dof rx rz
    limits (-45.0 45.0)
           (-45.0 45.0)
  end
:hierarchy
  begin
    root lhipjoint rhipjoint lowerback
    lhipjoint lfemur
    lfemur ltibia
    ltibia lfoot
    lfoot ltoes
    rhipjoint rfemur
    rfemur rtibia
    rtibia rfoot
    rfoot rtoes
    lowerback upperback
    upperback thorax
    thorax lowerneck lclavicle rclavicle
    lowerneck upperneck
    upperneck head
    lclavicle lhumerus
    lhumerus lradius
    lradius lwrist
    lwrist lhand lthumb
    lhand lfingers
    rclavicle rhumerus
    rhumerus rradius
    rradius rwrist
    rwrist rhand rthumb
    rhand rfingers
  end

#!OML:ASF F:\twosubjects\two\Thursday\Session 1\justin.ASF
:FULLY-SPECIFIED
:DEGREES
1
root 6.65937 16.2578 -17.5154 5.86241 13.2903 5.79332
lowerback 20.3467 -0.0088385 -3.2453
upperback 7.29489 -0.390876 3.14643
thorax -3.40946 -0.229749 5.31412
lowerneck -22.8389 -3.45307 -11.121
upperneck 20.4674 -1.57277 2.61814
head 10.4762 -1.27918 2.51413
rclavicle 1.51076e-014 -2.8625e-014
rhumerus -20.971 -21.1219 -66.1171
rradius 75.6919
rwrist -19.9636
rhand -19.9035 19.3341
rfingers 7.12502
rthumb 6.43297 -10.5483
lclavicle 1.51076e-014 -2.8625e-014
lhumerus -7.79657 -1.34218 87.6787
lradius 63.7477
lwrist -2.51445
lhand -0.671288 44.3481
lfingers 7.12502
lthumb 24.9472 72.7397
rfemur -42.7836 -15.2353 8.69176
rtibia 59.4376
rfoot -19.3373 -7.45033
rtoes -18.2872
lfemur -33.8669 11.573 -9.61996
ltibia 64.0914
lfoot -11.8685 -6.93428
ltoes -15.8355
2
root 6.70977 16.2497 -17.4104 6.26475 13.2728 6.02869
lowerback 20.4456 0.141235 -3.35202
upperback 7.2517 -0.222687 3.06128
thorax -3.5257 -0.143034 5.24758
lowerneck -22.7182 -3.57622 -10.9258
upperneck 20.2971 -1.81969 2.58273
head 10.4072 -1.37617 2.42981
rclavicle 5.56597e-015 -4.13472e-014
rhumerus -19.9721 -21.5392 -66.0922
rradius 75.9358
rwrist -20.304
rhand -20.2888 18.9839
rfingers 7.12502
rthumb 6.06096 -10.9094
lclavicle 5.56597e-015 -4.13472e-014
lhumerus -6.82712 -2.42348 87.9761
lradius 63.4301
lwrist -3.11743
lhand -0.450523 45.0902
lfingers 7.12502
lthumb 25.1588 73.4523
rfemur -42.9547 -15.3169 8.297
rtibia 59.8762
rfoot -19.7958 -7.21442
rtoes -17.9445
lfemur -34.4796 11.0586 -9.57793
ltibia 61.9037
lfoot -12.2417 -6.31922
ltoes -16.8625
3
root 6.75854 16.2336 -17.3073 6.61732 13.2023 6.11059
lowerback 20.526 0.562206 -3.13185
upperback 7.1312 0.348029 2.78437
thorax -3.7633 0.150235 4.69008
lowerneck -21.8433 -3.87624 -10.1724
upperneck 19.8025 -2.60413 2.58646
head 10.1116 -1.66686 2.19001
rclavicle 1.59028e-014 -1.11319e-014
rhumerus -19.8942 -22.8974 -65.7907
rradius 76.5828
rwrist -20.7669
rhand -20.3505 17.7916
rfingers 7.12502
rthumb 6.00145 -12.1034
lclavicle 1.59028e-014 -1.11319e-014
lhumerus -5.94202 -4.61173 88.1288
lradius 63.0088
lwrist -3.58137
lhand -0.665115 45.0069
lfingers 7.12502
lthumb 24.9532 73.3976
rfemur -43.0941 -15.2495 8.08425
rtibia 60.2183
rfoot -20.2888 -7.11795
rtoes -17.065
lfemur -35.0231 10.5802 -9.30549
ltibia 59.6265
lfoot -12.7559 -5.72602
ltoes -17.902
4
root 6.80846 16.2218 -17.2055 6.85408 13.1446 5.93466
lowerback 20.7455 0.297109 -3.09746
upperback 7.26685 0.0181028 2.96729
thorax -3.69356 -0.0171434 4.94787
lowerneck -22.7732 -3.87274 -10.9163
upperneck 20.0283 -2.27901 2.78277
head 10.354 -1.55294 2.42582
rclavicle 0 4.77083e-015
rhumerus -17.9083 -22.0898 -66.1503
rradius 76.9131
rwrist -21.2403
rhand -20.4526 17.1413
rfingers 7.12502
rthumb 5.90284 -12.7565
lclavicle 0 4.77083e-015
lhumerus -4.89691 -4.31645 88.3346
lradius 62.7827
lwrist -4.01525
lhand -0.983741 44.3509
lfingers 7.12502
lthumb 24.6478 72.7837
rfemur -43.1471 -15.1347 8.14694
rtibia 60.5408
rfoot -20.8806 -7.34169
rtoes -16.3954
lfemur -35.4509 10.0124 -8.6984
ltibia 57.2504
lfoot -13.0519 -5.16494
ltoes -17.0871
5
root 6.86517 16.2078 -17.1065 7.07163 13.0738 5.80369
lowerback 21.0212 0.19318 -2.91405
upperback 7.35199 -0.0819273 3.01283
thorax -3.73292 -0.0654258 4.91888
lowerneck -23.4502 -3.97606 -11.2313
upperneck 20.1916 -2.23418 2.83254
head 10.539 -1.55232 2.49872
rclavicle -2.14687e-014 -4.13472e-014
rhumerus -16.3425 -21.7859 -66.3656
rradius 77.2291
rwrist -21.7316
rhand -20.5276 17.2682
rfingers 7.12502
rthumb 5.83048 -12.6316
lclavicle -2.14687e-014 -4.13472e-014
lhumerus -3.74252 -4.97333 88.4118
lradius 62.4707
lwrist -4.26096
lhand -1.3355 43.8294
lfingers 7.12502
lthumb 24.3106 72.3078
rfemur -43.1755 -15.109 8.12297
rtibia 60.8543
rfoot -21.3678 -7.46206
rtoes -16.0371
lfemur -35.7469 9.34778 -8.09735
ltibia 54.7358
lfoot -13.0275 -4.86854
ltoes -15.1304
6
root 6.9227 16.1903 -17.0099 7.2778 12.9509 5.6783
lowerback 21.3397 0.277287 -2.74606
upperback 7.37693 0.0562859 3.01945
thorax -3.88421 0.00694674 4.80119
lowerneck -23.7685 -4.10426 -11.3283
upperneck 20.1928 -2.37105 2.97518
head 10.6101 -1.60291 2.54237
rclavicle -1.90833e-014 2.22639e-014
rhumerus -15.377 -21.6591 -66.2349
rradius 77.9885
rwrist -22.3421
rhand -20.5638 17.1733
rfingers 7.12502
rthumb 5.79546 -12.7274
lclavicle -1.90833e-014 2.22639e-014
lhumerus -2.46147 -6.26274 88.4937
lradius 61.9446
lwrist -4.49909
lhand -2.12475 44.1006
lfingers 7.12502
lthumb 23.5537 72.6783
rfemur -43.22 -15.0491 8.1137
rtibia 61.1777
rfoot -21.8216 -7.58407
rtoes -16.9466
lfemur -35.9402 8.72301 -7.4496
ltibia 52.053
lfoot -12.9113 -4.69151
ltoes -13.7375
7
root 6.97875 16.1853 -16.9151 7.4875 12.7447 5.6668
lowerback 21.6587 0.595645 -2.77647
upperback 7.22755 0.451226 2.93202
thorax -4.24902 0.210912 4.63233
lowerneck -23.044 -4.24912 -11.0827
upperneck 19.818 -2.80083 3.15264
head 10.3723 -1.75185 2.50033
rclavicle 1.59028e-015 -1.90833e-014
rhumerus -15.0302 -22.0116 -65.9988
rradius 78.8759
rwrist -22.9084
rhand -20.7766 17.0424
rfingers 7.12502
rthumb 5.59005 -12.8639
lclavicle 1.59028e-015 -1.90833e-014
lhumerus -1.64498 -8.07988 88.6042
lradius 61.6376
lwrist -4.67058
lhand -2.9643 44.1174
lfingers 7.12502
lthumb 22.7482 72.7963
rfemur -43.2406 -14.8855 7.98863
rtibia 61.4822
rfoot -22.3126 -7.85249
rtoes -18.5641
lfemur -35.9883 7.9699 -6.87694
ltibia 49.2105
lfoot -12.7416 -4.39901
ltoes -13.6501
8
root 7.03962 16.18 -16.8191 7.70405 12.597 5.80521
lowerback 21.9615 0.582944 -2.93553
upperback 7.2138 0.390476 2.83107
thorax -4.41121 0.184655 4.6331
lowerneck -22.8736 -4.24774 -11.2078
upperneck 19.4734 -2.83398 3.37675
head 10.2238 -1.7418 2.59458
rclavicle -2.06736e-014 0
rhumerus -13.3343 -22.0444 -66.5608
rradius 78.7359
rwrist -22.9592
rhand -21.172 17.7198
rfingers 7.12502
rthumb 5.20823 -12.1962
lclavicle -2.06736e-014 0
lhumerus -0.847891 -8.81322 88.5337
lradius 61.6229
lwrist -5.06428
lhand -2.99091 43.0279
lfingers 7.12502
lthumb 22.7227 71.71
rfemur -43.2036 -14.8169 7.6627
rtibia 61.765
rfoot -22.7382 -8.10477
rtoes -19.1024
lfemur -35.9531 7.06426 -6.4459
ltibia 46.3062
lfoot -12.3637 -4.23602
ltoes -15.6329
9
root 7.10257 16.1639 -16.7205 7.85572 12.615 5.49164
lowerback 22.1492 0.549566 -2.62259
upperback 7.19672 0.41063 2.83789
thorax -4.52754 0.198544 4.45694
lowerneck -22.6269 -4.2998 -11.0767
upperneck 19.1021 -2.97451 3.34412
head 10.0533 -1.79299 2.53823
rclavicle 1.90833e-014 -1.43125e-014
rhumerus -11.5737 -22.3035 -67.0118
rradius 78.3323
rwrist -22.7329
rhand -21.6435 18.0352
rfingers 7.12502
rthumb 4.75305 -11.8915
lclavicle 1.90833e-014 -1.43125e-014
lhumerus 0.0583297 -9.94502 88.4379
lradius 61.506
lwrist -5.48238
lhand -3.07069 42.5986
lfingers 7.12502
lthumb 22.6461 71.2899
rfemur -43.1314 -14.7855 7.83441
rtibia 61.9924
rfoot -23.0363 -8.10803
rtoes -18.5603
lfemur -35.9773 6.17159 -5.44504
ltibia 43.4227
lfoot -11.3692 -4.51286
ltoes -17.9949
